<?xml version="1.0" encoding="UTF-8"?>
<svg xmlns="http://www.w3.org/2000/svg"
     viewBox="0 0 800 800"
     role="img"
     aria-label="TermSurf">
  <!-- TermSurf product mark: wave + shell prompt.
       Source: assets/termsurf-14-dark.png (800x800 RGBA).
       Construction: alpha>128 binary mask; 4-connected components;
       outer Moore contours; wave = recursive LS cubic Beziers
       (max_err~0.85px); prompt = RDP polylines (eps~0.75).
       Primary gate: XOR alpha <= 1.0% mark bbox at 1024^2
       vs master (nearest mask upscale). fill=currentColor; transparent
       background; no raster embeds. Issue 26071911571399 exp-0001.
       stats: [{'kind': 'wave', 'pixels': 137491, 'contour': 2385, 'cubics': 34}, {'kind': 'prompt', 'pixels': 8826, 'contour': 504, 'verts': 34}, {'kind': 'prompt', 'pixels': 4167, 'contour': 307, 'verts': 16}] -->
  <path fill="currentColor" d="M371.50 128.50 C425.94 127.77 478.29 137.92 512.50 181.50 C515.63 187.92 519.79 193.91 522.50 200.50 C523.42 208.17 526.70 215.76 524.50 223.50 C523.37 225.73 521.42 226.93 518.50 226.50 C486.04 200.74 438.75 198.40 398.50 208.50 C367.24 217.24 338.83 232.85 312.50 253.50 C283.67 278.57 261.36 308.30 247.50 340.50 C236.89 367.15 232.53 398.22 236.50 428.50 C241.18 451.29 249.90 472.41 263.50 491.50 C275.08 506.56 289.96 519.66 304.50 531.50 C385.94 586.79 481.81 607.27 581.50 618.50 C581.83 618.83 582.17 619.17 582.50 619.50 C585.17 619.50 587.83 619.50 590.50 619.50 C590.83 619.83 591.17 620.17 591.50 620.50 C594.17 620.50 596.83 620.50 599.50 620.50 C599.83 620.83 600.17 621.17 600.50 621.50 C607.92 620.81 614.08 623.19 621.50 622.50 C621.83 622.83 622.17 623.17 622.50 623.50 C631.61 622.77 639.43 625.14 648.50 624.50 C648.83 624.83 649.17 625.17 649.50 625.50 C663.84 625.02 677.04 627.27 691.50 626.50 C691.83 626.83 692.17 627.17 692.50 627.50 C715.17 627.50 737.83 627.50 760.50 627.50 C748.01 634.88 733.66 637.75 720.50 643.50 C698.74 649.07 676.47 653.44 654.50 658.50 C575.55 671.19 493.35 676.05 408.50 674.50 C408.17 674.17 407.83 673.83 407.50 673.50 C324.00 672.50 244.37 662.15 171.50 635.50 C146.73 624.50 122.57 612.03 100.50 594.50 C79.78 575.97 63.25 554.92 52.50 531.50 C35.93 493.38 35.36 444.31 44.50 402.50 C54.68 365.56 68.81 330.26 91.50 298.50 C117.12 257.24 156.54 218.92 196.50 190.50 C248.75 156.27 304.96 131.64 370.50 129.50 Z"/>
  <path fill="currentColor" d="M362.50 285.50 L367.50 285.50 L371.50 287.50 L487.50 356.50 L490.50 363.50 L490.50 370.50 L488.50 375.50 L469.50 387.50 L453.50 395.50 L374.50 441.50 L364.50 446.50 L357.50 446.50 L354.50 442.50 L354.50 433.50 L355.50 432.50 L356.50 413.50 L358.50 411.50 L374.50 403.50 L381.50 398.50 L390.50 394.50 L438.50 366.50 L437.50 364.50 L426.50 357.50 L419.50 354.50 L380.50 330.50 L375.50 328.50 L370.50 324.50 L363.50 321.50 L357.50 316.50 L356.50 309.50 L357.50 308.50 L358.50 290.50 L360.50 286.50 L361.50 286.50 Z"/>
  <path fill="currentColor" d="M496.50 410.50 L617.50 410.50 L618.50 411.50 L618.50 415.50 L617.50 416.50 L617.50 421.50 L616.50 422.50 L616.50 427.50 L613.50 440.50 L610.50 442.50 L489.50 442.50 L487.50 440.50 L487.50 437.50 L490.50 428.50 L492.50 415.50 L495.50 411.50 Z"/>
</svg>
